HIERARCHY
ROOT Hips
{
  OFFSET 47.5402 103.091 -13.3365
  CHANNELS 6 Xposition Yposition Zposition Zrotation Xrotation Yrotation
  JOINT Chest
  {
    OFFSET 1.23234e-007 14.8421 1.27316e-009
    CHANNELS 6 Xposition Yposition Zposition Zrotation Xrotation Yrotation
    JOINT RightCollar
    {
      OFFSET -6.11406 27.2248 4.23427
      CHANNELS 6 Xposition Yposition Zposition Zrotation Xrotation Yrotation
      JOINT RightUpArm
      {
        OFFSET -10.4566 2.3285 -0.910794
        CHANNELS 6 Xposition Yposition Zposition Zrotation Xrotation Yrotation
        JOINT RightLowArm
        {
          OFFSET -3.86856 -25.191 -1.74633
          CHANNELS 6 Xposition Yposition Zposition Zrotation Xrotation Yrotation
          JOINT RightHand
          {
            OFFSET -1.04759 -20.6242 1.75213
            CHANNELS 6 Xposition Yposition Zposition Zrotation Xrotation Yrotation
            End Site
            {
              OFFSET -2.03487e-006 -9.50367 -4.31372e-006
            }
          }
        }
      }
    }
    JOINT LeftCollar
    {
      OFFSET 6.64893 27.3161 3.27471
      CHANNELS 6 Xposition Yposition Zposition Zrotation Xrotation Yrotation
      JOINT LeftUpArm
      {
        OFFSET 10.8584 2.41798 -0.945791
        CHANNELS 6 Xposition Yposition Zposition Zrotation Xrotation Yrotation
        JOINT LeftLowArm
        {
          OFFSET 3.77631 -24.5904 -1.70468
          CHANNELS 6 Xposition Yposition Zposition Zrotation Xrotation Yrotation
          JOINT LeftHand
          {
            OFFSET 1.01026 -21.1231 1.74131
            CHANNELS 6 Xposition Yposition Zposition Zrotation Xrotation Yrotation
            End Site
            {
              OFFSET 1.17583e-006 -9.81266 -2.89439e-008
            }
          }
        }
      }
    }
    JOINT Neck
    {
      OFFSET 0.51659 29.8236 6.51843
      CHANNELS 6 Xposition Yposition Zposition Zrotation Xrotation Yrotation
      JOINT Head
      {
        OFFSET 1.16803e-007 7.47049 6.44171e-007
        CHANNELS 6 Xposition Yposition Zposition Zrotation Xrotation Yrotation
        End Site
        {
          OFFSET -4.32676e-008 16.2908 2.16786e-007
        }
      }
    }
  }
  JOINT LeftUpLeg
  {
    OFFSET 9 -3.38008e-006 -5.23001e-009
    CHANNELS 6 Xposition Yposition Zposition Zrotation Xrotation Yrotation
    JOINT LeftLowLeg
    {
      OFFSET -0.575 -51.431 3.90177
      CHANNELS 6 Xposition Yposition Zposition Zrotation Xrotation Yrotation
      JOINT LeftFoot
      {
        OFFSET 2.13082e-007 -43.5882 -3.90177
        CHANNELS 6 Xposition Yposition Zposition Zrotation Xrotation Yrotation
        End Site
        {
          OFFSET 7.44796e-007 -6.93413 15.0046
        }
      }
    }
  }
  JOINT RightUpLeg
  {
    OFFSET -9 6.86154e-007 -3.19539e-009
    CHANNELS 6 Xposition Yposition Zposition Zrotation Xrotation Yrotation
    JOINT RightLowLeg
    {
      OFFSET 0.575 -51.4311 3.90177
      CHANNELS 6 Xposition Yposition Zposition Zrotation Xrotation Yrotation
      JOINT RightFoot
      {
        OFFSET -7.46079e-007 -43.5882 -3.90177
        CHANNELS 6 Xposition Yposition Zposition Zrotation Xrotation Yrotation
        End Site
        {
          OFFSET 4.66716e-007 -6.93413 15.0046
        }
      }
    }
  }
}
MOTION
Frames:	10
Frame Time:	0.0333333
120.833 98.9753 -18.8409 -0.0191603 -3.85317 39.1925 1.23233e-007 14.8421 1.27445e-009 1.52373 5.7624 -12.0612 -6.11406 27.2248 4.23427 -1.96452 7.32629 3.42623 -10.4566 2.3285 -0.910794 -32.4602 -23.6811 -34.2986 -3.86856 -25.191 -1.74633 -11.3854 -25.4814 42.7618 -1.04759 -20.6242 1.75213 -30.0797 18.0382 0.0907083 6.64893 27.3161 3.27471 -2.94784 5.93879 -4.20517 10.8584 2.41798 -0.945791 0.651974 -17.6945 2.65426 3.77631 -24.5904 -1.70468 0.0844918 -24.1043 -18.3871 1.01026 -21.1231 1.74131 20.46 7.3397 1.36752 0.51659 29.8236 6.51843 1.36786 -2.75284 -16.6819 1.16803e-007 7.47049 6.44171e-007 6.30445 9.65261 -16.5294 9 -3.38008e-006 -5.22748e-009 3.39809 5.58587 9.09307 -0.575 -51.431 3.90177 -8.32703 30.3804 -22.3843 2.13082e-007 -43.5882 -3.90177 8.06461 0.413557 -0.83003 -9 6.86154e-007 -3.20005e-009 -5.81863 -19.984 -15.641 0.575 -51.4311 3.90177 0.13679 18.9702 13.5611 -7.46079e-007 -43.5882 -3.90177 1.72989 12.2561 -0.51599 
118.935 97.8281 -19.6418 -0.129051 -4.86239 36.6962 1.23233e-007 14.8421 1.27445e-009 2.71955 7.46308 -11.5915 -6.11406 27.2248 4.23427 -1.96452 7.32629 3.42623 -10.4566 2.3285 -0.910794 -26.4747 -16.3753 -32.4455 -3.86856 -25.191 -1.74633 -6.66152 -31.2909 46.22 -1.04759 -20.6242 1.75213 -30.2444 18.7828 0.254189 6.64893 27.3161 3.27471 -2.94784 5.93879 -4.20517 10.8584 2.41798 -0.945791 0.80259 -19.6973 6.70162 3.77631 -24.5904 -1.70468 4.3366 -14.6073 -14.8853 1.01026 -21.1231 1.74131 22.1568 7.80397 1.41522 0.51659 29.8236 6.51843 0.628436 -3.98654 -16.2818 1.16803e-007 7.47049 6.44171e-007 6.39922 9.22485 -16.362 9 -3.38008e-006 -5.22744e-009 0.681896 6.68745 7.08098 -0.575 -51.431 3.90177 -7.85539 28.9484 -22.4403 2.13082e-007 -43.5882 -3.90177 10.3521 -0.153407 -1.0392 -9 6.86154e-007 -3.20009e-009 -4.13488 -20.8202 -14.575 0.575 -51.4311 3.90177 0.329872 19.277 15.6073 -7.46079e-007 -43.5882 -3.90177 1.32325 11.7866 -0.42436 
116.69 96.567 -20.9604 0.09351 -5.66518 34.1449 1.23233e-007 14.8421 1.27445e-009 3.04707 10.1519 -11.0853 -6.11406 27.2248 4.23427 -1.96452 7.32629 3.42623 -10.4566 2.3285 -0.910794 -19.912 -12.1882 -31.7148 -3.86856 -25.191 -1.74633 -4.52868 -32.9228 45.585 -1.04759 -20.6242 1.75213 -29.8213 19.8487 0.453512 6.64893 27.3161 3.27471 -2.94784 5.93879 -4.20517 10.8584 2.41798 -0.945791 1.50968 -22.9895 9.41747 3.77631 -24.5904 -1.70468 8.79711 -4.58824 -11.4951 1.01026 -21.1231 1.74131 24.4993 9.3177 1.31349 0.51659 29.8236 6.51843 0.009689 -5.83131 -16.0946 1.16803e-007 7.47049 6.44171e-007 6.6973 8.90373 -16.3901 9 -3.38008e-006 -5.2274e-009 -1.36156 7.19204 5.77442 -0.575 -51.431 3.90177 -6.0808 28.1777 -14.5248 2.13082e-007 -43.5882 -3.90177 14.2775 -6.58235 -0.653301 -9 6.86154e-007 -3.20013e-009 -2.98651 -21.779 -13.9122 0.575 -51.4311 3.90177 0.854113 19.0854 18.6592 -7.46079e-007 -43.5882 -3.90177 0.974379 12.1889 -0.364412 
113.898 95.3966 -23.0615 -0.8698 -5.58191 32.2892 1.23233e-007 14.8421 1.27445e-009 3.33943 12.1954 -11.2436 -6.11406 27.2248 4.23427 -1.96452 7.32629 3.42623 -10.4566 2.3285 -0.910794 -13.5922 -11.6516 -30.8411 -3.86856 -25.191 -1.74633 -6.13588 -29.6897 42.5275 -1.04759 -20.6242 1.75213 -30.7945 19.7854 0.494125 6.64893 27.3161 3.27471 -2.94784 5.93879 -4.20517 10.8584 2.41798 -0.945791 3.27267 -23.7198 12.2846 3.77631 -24.5904 -1.70468 10.0057 -2.9404 -11.1461 1.01026 -21.1231 1.74131 27.6857 9.93243 1.3493 0.51659 29.8236 6.51843 -0.160307 -8.66914 -16.057 1.16803e-007 7.47049 6.44171e-007 7.08284 9.21685 -16.443 9 -3.38008e-006 -5.22736e-009 -1.8511 4.74147 5.27086 -0.575 -51.431 3.90177 -4.22475 29.1341 -7.64486 2.13082e-007 -43.5882 -3.90177 21.4657 -17.5174 1.18246 -9 6.86154e-007 -3.20017e-009 -1.32006 -23.7726 -12.6149 0.575 -51.4311 3.90177 1.39033 16.7134 22.0781 -7.46079e-007 -43.5882 -3.90177 1.65291 15.1623 -0.582177 
111.157 94.3299 -25.5258 -1.77169 -4.30712 31.039 1.23233e-007 14.8421 1.27445e-009 2.82929 13.1816 -11.5017 -6.11406 27.2248 4.23427 -1.96452 7.32629 3.42623 -10.4566 2.3285 -0.910794 -8.36846 -10.0173 -30.0245 -3.86856 -25.191 -1.74633 -5.81817 -28.6066 42.1105 -1.04759 -20.6242 1.75213 -32.365 20.3484 0.716136 6.64893 27.3161 3.27471 -2.94784 5.93879 -4.20517 10.8584 2.41798 -0.945791 4.4334 -23.9858 14.353 3.77631 -24.5904 -1.70468 11.0741 -4.1163 -10.0546 1.01026 -21.1231 1.74131 29.6776 9.8509 1.44488 0.51659 29.8236 6.51843 1.19029 -12.7589 -16.0453 1.16803e-007 7.47049 6.44171e-007 6.35262 9.82852 -15.8898 9 -3.38008e-006 -5.22732e-009 -1.91037 0.730978 4.99433 -0.575 -51.431 3.90177 -3.38165 30.5458 -4.50195 2.13082e-007 -43.5882 -3.90177 26.5547 -24.2151 3.04321 -9 6.86154e-007 -3.2002e-009 -0.715635 -26.5888 -11.8073 0.575 -51.4311 3.90177 2.05096 14.0687 27.0508 -7.46079e-007 -43.5882 -3.90177 3.32603 19.9798 -1.16252 
108.807 93.6602 -27.8245 -2.19244 -2.79064 29.1105 1.23233e-007 14.8421 1.27445e-009 1.4202 12.8038 -11.05 -6.11406 27.2248 4.23427 -1.96452 7.32629 3.42623 -10.4566 2.3285 -0.910794 -4.39314 -6.58663 -29.6268 -3.86856 -25.191 -1.74633 -3.34312 -31.3003 44.617 -1.04759 -20.6242 1.75213 -32.0721 20.7941 0.79876 6.64893 27.3161 3.27471 -2.94784 5.93879 -4.20517 10.8584 2.41798 -0.945791 5.35949 -20.2287 16.4944 3.77631 -24.5904 -1.70468 9.24317 -12.8945 -10.8417 1.01026 -21.1231 1.74131 30.1072 8.78796 1.67972 0.51659 29.8236 6.51843 2.26653 -13.877 -15.6179 1.16803e-007 7.47049 6.44171e-007 6.69933 8.85807 -15.2897 9 -3.38008e-006 -5.22728e-009 -1.54768 -3.40454 5.98062 -0.575 -51.431 3.90177 -4.22095 32.5697 -2.92724 2.13082e-007 -43.5882 -3.90177 28.1108 -26.7556 3.91219 -9 6.86154e-007 -3.20024e-009 -0.304251 -27.9044 -10.955 0.575 -51.4311 3.90177 2.89416 9.35637 34.9317 -7.46079e-007 -43.5882 -3.90177 5.74112 24.8092 -2.11378 
107.176 93.805 -29.6651 -1.71083 -1.48507 26.8723 1.23233e-007 14.8421 1.27444e-009 0.191156 12.4499 -10.3809 -6.11406 27.2248 4.23427 -1.96452 7.32629 3.42623 -10.4566 2.3285 -0.910794 -2.67461 -1.64846 -28.5779 -3.86856 -25.191 -1.74633 1.3012 -36.679 47.785 -1.04759 -20.6242 1.75213 -32.2512 20.3157 0.698785 6.64893 27.3161 3.27471 -2.94784 5.93879 -4.20517 10.8584 2.41798 -0.945791 5.19941 -16.2383 17.3116 3.77631 -24.5904 -1.70468 6.75927 -21.1011 -11.7565 1.01026 -21.1231 1.74131 29.4653 7.75796 1.84983 0.51659 29.8236 6.51843 1.73572 -14.6526 -15.2582 1.16803e-007 7.47049 6.44171e-007 7.18358 8.83603 -15.1873 9 -3.38008e-006 -5.22725e-009 -1.73615 -5.95933 7.03174 -0.575 -51.431 3.90177 -5.4842 33.0317 -1.82195 2.13082e-007 -43.5882 -3.90177 26.6024 -26.0311 3.50817 -9 6.86154e-007 -3.20028e-009 -0.991548 -28.1958 -11.1898 0.575 -51.4311 3.90177 3.42506 7.3432 37.2298 -7.46079e-007 -43.5882 -3.90177 7.22855 27.0361 -2.72576 
106.146 94.9344 -30.8174 -1.20285 -1.95133 25.1658 1.23233e-007 14.8421 1.27444e-009 0.185102 13.4228 -10.3706 -6.11406 27.2248 4.23427 -1.96452 7.32629 3.42623 -10.4566 2.3285 -0.910794 -2.93428 2.18875 -26.8755 -3.86856 -25.191 -1.74633 5.10445 -40.5735 50.5559 -1.04759 -20.6242 1.75213 -31.4523 19.3677 0.440409 6.64893 27.3161 3.27471 -2.94784 5.93879 -4.20517 10.8584 2.41798 -0.945791 4.15954 -13.1444 16.8938 3.77631 -24.5904 -1.70468 4.71546 -27.0182 -12.42 1.01026 -21.1231 1.74131 28.8824 7.61265 1.84428 0.51659 29.8236 6.51843 1.14818 -14.9682 -14.6968 1.16803e-007 7.47049 6.44171e-007 7.0881 9.02176 -14.7713 9 -3.38008e-006 -5.22721e-009 -1.69946 -5.19063 7.43968 -0.575 -51.431 3.90177 -5.79299 30.5899 -1.67343 2.13082e-007 -43.5882 -3.90177 24.2262 -23.655 2.62943 -9 6.86154e-007 -3.20032e-009 -1.7907 -27.4603 -11.7383 0.575 -51.4311 3.90177 2.44183 10.0696 32.0689 -7.46079e-007 -43.5882 -3.90177 5.16855 23.8127 -1.87069 
105.443 96.7371 -31.4764 -1.2439 -2.87326 23.3334 1.23233e-007 14.8421 1.27444e-009 0.0485942 13.8243 -10.5627 -6.11406 27.2248 4.23427 -1.96452 7.32629 3.42623 -10.4566 2.3285 -0.910794 -4.22178 3.66372 -23.8069 -3.86856 -25.191 -1.74633 5.31832 -40.8695 50.7262 -1.04759 -20.6242 1.75213 -30.8527 19.0899 0.347011 6.64893 27.3161 3.27471 -2.94784 5.93879 -4.20517 10.8584 2.41798 -0.945791 3.09079 -9.03179 16.6267 3.77631 -24.5904 -1.70468 1.87714 -33.9699 -14.6367 1.01026 -21.1231 1.74131 28.263 7.09724 1.90149 0.51659 29.8236 6.51843 2.48044 -13.5019 -13.8171 1.16803e-007 7.47049 6.44171e-007 5.76081 8.29209 -13.3277 9 -3.38008e-006 -5.22717e-009 -1.42519 -3.02563 7.55479 -0.575 -51.431 3.90177 -5.46054 26.1205 -1.76513 2.13082e-007 -43.5882 -3.90177 20.6828 -20.0597 1.54111 -9 6.86154e-007 -3.20035e-009 -1.97084 -25.5107 -11.43 0.575 -51.4311 3.90177 0.595138 13.5904 25.5958 -7.46079e-007 -43.5882 -3.90177 1.82896 16.7121 -0.687145 
104.97 98.5535 -31.6809 -0.859472 -3.67138 20.5041 1.23233e-007 14.8421 1.27444e-009 0.352486 13.7676 -9.52148 -6.11406 27.2248 4.23427 -1.96452 7.32629 3.42623 -10.4566 2.3285 -0.910794 -6.72162 6.71319 -21.8628 -3.86856 -25.191 -1.74633 8.4447 -44.837 53.6282 -1.04759 -20.6242 1.75213 -29.8047 18.4697 0.16931 6.64893 27.3161 3.27471 -2.94784 5.93879 -4.20517 10.8584 2.41798 -0.945791 1.44051 -5.45358 16.3324 3.77631 -24.5904 -1.70468 -0.507054 -40.2855 -16.8075 1.01026 -21.1231 1.74131 27.5743 7.0888 1.85873 0.51659 29.8236 6.51843 2.03323 -12.4015 -13.0166 1.16803e-007 7.47049 6.44171e-007 5.16695 8.02153 -12.5298 9 -3.38008e-006 -5.22713e-009 -1.87038 -0.132692 7.46517 -0.575 -51.431 3.90177 -5.04968 20.8443 -0.753805 2.13082e-007 -43.5882 -3.90177 16.111 -15.7657 0.571281 -9 6.86154e-007 -3.20039e-009 -2.28934 -22.5106 -10.8016 0.575 -51.4311 3.90177 -1.69945 16.3162 20.8375 -7.46079e-007 -43.5882 -3.90177 0.14994 11.6491 -0.196644 
